<svg xmlns="http://www.w3.org/2000/svg" width="1200" height="675" viewBox="0 0 1200 675" role="img" aria-labelledby="title desc">
  <title id="title">Backend choice architecture map</title>
  <desc id="desc">A conceptual architecture map comparing responsibilities for Supabase, Firebase, and Appwrite in a mobile app backend choice article.</desc>
  <defs>
    <filter id="shadow" x="-20%" y="-20%" width="140%" height="140%">
      <feDropShadow dx="0" dy="12" stdDeviation="16" flood-color="#17202b" flood-opacity="0.14"/>
    </filter>
    <style>
      .title { font: 760 40px Inter, ui-sans-serif, system-ui, -apple-system, BlinkMacSystemFont, "Segoe UI", sans-serif; fill: #17202a; }
      .subtitle { font: 500 18px Inter, ui-sans-serif, system-ui, -apple-system, BlinkMacSystemFont, "Segoe UI", sans-serif; fill: #61707a; }
      .tool { font: 760 27px Inter, ui-sans-serif, system-ui, -apple-system, BlinkMacSystemFont, "Segoe UI", sans-serif; fill: #17202a; }
      .tag { font: 740 12px Inter, ui-sans-serif, system-ui, -apple-system, BlinkMacSystemFont, "Segoe UI", sans-serif; fill: #61707a; letter-spacing: 1px; }
      .item { font: 520 16px Inter, ui-sans-serif, system-ui, -apple-system, BlinkMacSystemFont, "Segoe UI", sans-serif; fill: #34424d; }
      .small { font: 520 14px Inter, ui-sans-serif, system-ui, -apple-system, BlinkMacSystemFont, "Segoe UI", sans-serif; fill: #66737d; }
    </style>
  </defs>
  <rect width="1200" height="675" fill="#f6f8f7"/>
  <rect x="58" y="46" width="1084" height="583" rx="34" fill="#ffffff" filter="url(#shadow)"/>
  <text x="96" y="110" class="title">Backend Choice Architecture Map</text>
  <text x="98" y="146" class="subtitle">Compare the work each platform is expected to own before picking a backend.</text>

  <rect x="96" y="208" width="304" height="338" rx="28" fill="#e8f6ef" stroke="#72bd8b" stroke-width="2"/>
  <text x="128" y="254" class="tag">POSTGRES-FIRST APP DATA</text>
  <text x="128" y="292" class="tool">Supabase</text>
  <rect x="128" y="326" width="236" height="42" rx="16" fill="#ffffff" opacity="0.88"/>
  <text x="151" y="352" class="item">Database and Auth</text>
  <rect x="128" y="382" width="236" height="42" rx="16" fill="#ffffff" opacity="0.88"/>
  <text x="151" y="408" class="item">Storage and Realtime</text>
  <rect x="128" y="438" width="236" height="42" rx="16" fill="#ffffff" opacity="0.88"/>
  <text x="151" y="464" class="item">Edge Functions</text>
  <text x="128" y="514" class="small">Ask: does the app want SQL</text>
  <text x="128" y="535" class="small">and portable data models?</text>

  <rect x="448" y="208" width="304" height="338" rx="28" fill="#fff1d7" stroke="#e8bb5a" stroke-width="2"/>
  <text x="480" y="254" class="tag">GOOGLE APP SERVICES</text>
  <text x="480" y="292" class="tool">Firebase</text>
  <rect x="480" y="326" width="236" height="42" rx="16" fill="#ffffff" opacity="0.88"/>
  <text x="503" y="352" class="item">Auth and Firestore</text>
  <rect x="480" y="382" width="236" height="42" rx="16" fill="#ffffff" opacity="0.88"/>
  <text x="503" y="408" class="item">Hosting and Functions</text>
  <rect x="480" y="438" width="236" height="42" rx="16" fill="#ffffff" opacity="0.88"/>
  <text x="503" y="464" class="item">Crashlytics and Config</text>
  <text x="480" y="514" class="small">Ask: does the team already fit</text>
  <text x="480" y="535" class="small">Google Cloud patterns?</text>

  <rect x="800" y="208" width="304" height="338" rx="28" fill="#edf1ff" stroke="#9aaeea" stroke-width="2"/>
  <text x="832" y="254" class="tag">OPEN-SOURCE BACKEND SURFACE</text>
  <text x="832" y="292" class="tool">Appwrite</text>
  <rect x="832" y="326" width="236" height="42" rx="16" fill="#ffffff" opacity="0.88"/>
  <text x="855" y="352" class="item">Auth and Databases</text>
  <rect x="832" y="382" width="236" height="42" rx="16" fill="#ffffff" opacity="0.88"/>
  <text x="855" y="408" class="item">Storage and Functions</text>
  <rect x="832" y="438" width="236" height="42" rx="16" fill="#ffffff" opacity="0.88"/>
  <text x="855" y="464" class="item">Messaging and Sites</text>
  <text x="832" y="514" class="small">Ask: does ownership or self-hosting</text>
  <text x="832" y="535" class="small">matter to the project?</text>

  <rect x="96" y="579" width="1008" height="1" fill="#dde4e8"/>
  <text x="98" y="607" class="small">Use this as a neutral map of responsibilities, then verify current limits, pricing, and platform docs.</text>
</svg>
