<svg xmlns="http://www.w3.org/2000/svg" width="1200" height="675" viewBox="0 0 1200 675" role="img" aria-labelledby="title desc">
  <title id="title">Warp: earns its place versus skip it</title>
  <desc id="desc">A two-column decision graphic for solo mobile developers. Left column, when Warp earns a place in your stack: you forget commands you use rarely, you read a lot of build output, and you repeat the same multi-step commands. Right column, when to skip it for now: your terminal already disappears, you want minimal and lightweight, you expect a mobile build tool, and you are wary of usage-based AI pricing.</desc>
  <defs>
    <filter id="softShadow" x="-20%" y="-20%" width="140%" height="140%">
      <feDropShadow dx="0" dy="8" stdDeviation="12" flood-color="#20241f" flood-opacity="0.12"/>
    </filter>
    <style>
      .bg { fill: #fbfaf7; }
      .headline { font: 700 40px "Source Serif 4", "Iowan Old Style", Georgia, serif; fill: #20241f; }
      .subhead { font: 400 20px Inter, ui-sans-serif, system-ui, -apple-system, "Segoe UI", sans-serif; fill: #6e6a5e; }
      .col { font: 700 24px Inter, ui-sans-serif, system-ui, -apple-system, "Segoe UI", sans-serif; fill: #fbfaf7; }
      .row { font: 500 21px Inter, ui-sans-serif, system-ui, -apple-system, "Segoe UI", sans-serif; fill: #20241f; }
      .foot { font: 500 18px Inter, ui-sans-serif, system-ui, -apple-system, "Segoe UI", sans-serif; fill: #6e6a5e; }
      .eyebrow { font: 700 13px Inter, ui-sans-serif, system-ui, sans-serif; fill: #9a6b23; letter-spacing: 2px; }
      .node { font: 700 17px Inter, ui-sans-serif, system-ui, sans-serif; fill: #fbfaf7; }
    </style>
  </defs>

  <rect class="bg" x="0" y="0" width="1200" height="675"/>

  <!-- Header -->
  <text class="eyebrow" x="60" y="58">INDIEAPPSTACK · FIELD GUIDE</text>
  <text class="headline" x="60" y="100">Does Warp earn a place in your stack?</text>
  <text class="subhead" x="60" y="134">A quick read for solo mobile developers deciding whether to switch terminals.</text>

  <!-- Center either/or divider -->
  <line x1="600" y1="212" x2="600" y2="564" stroke="#6e6a5e" stroke-width="1.5" stroke-dasharray="2 7" opacity="0.4"/>

  <!-- LEFT CARD: earns its place -->
  <rect x="60" y="176" width="516" height="424" rx="14" fill="#ffffff" stroke="#e7e2d7" stroke-width="1.5" filter="url(#softShadow)"/>
  <path d="M 74 176 h 488 a14 14 0 0 1 14 14 v 50 h -516 v -50 a14 14 0 0 1 14 -14 z" fill="#2c5f4f"/>
  <text class="col" x="88" y="217">Warp earns its place</text>

  <g>
    <circle cx="100" cy="316" r="15" fill="#2c5f4f"/>
    <path d="M 94,316 L 98,321 L 107,310" stroke="#ffffff" stroke-width="2.6" fill="none" stroke-linecap="round" stroke-linejoin="round"/>
    <text class="row" x="130" y="323">You forget commands you use rarely</text>

    <circle cx="100" cy="404" r="15" fill="#2c5f4f"/>
    <path d="M 94,404 L 98,409 L 107,398" stroke="#ffffff" stroke-width="2.6" fill="none" stroke-linecap="round" stroke-linejoin="round"/>
    <text class="row" x="130" y="411">You read a lot of build output</text>

    <circle cx="100" cy="492" r="15" fill="#2c5f4f"/>
    <path d="M 94,492 L 98,497 L 107,486" stroke="#ffffff" stroke-width="2.6" fill="none" stroke-linecap="round" stroke-linejoin="round"/>
    <text class="row" x="130" y="499">You repeat the same multi-step commands</text>
  </g>

  <!-- RIGHT CARD: skip it -->
  <rect x="624" y="176" width="516" height="424" rx="14" fill="#ffffff" stroke="#e7e2d7" stroke-width="1.5" filter="url(#softShadow)"/>
  <path d="M 638 176 h 488 a14 14 0 0 1 14 14 v 50 h -516 v -50 a14 14 0 0 1 14 -14 z" fill="#20241f"/>
  <text class="col" x="652" y="217">Skip it — for now</text>

  <g>
    <circle cx="664" cy="300" r="15" fill="none" stroke="#6e6a5e" stroke-width="2"/>
    <line x1="657" y1="300" x2="671" y2="300" stroke="#6e6a5e" stroke-width="2.6" stroke-linecap="round"/>
    <text class="row" x="694" y="307">Your terminal already disappears</text>

    <circle cx="664" cy="380" r="15" fill="none" stroke="#6e6a5e" stroke-width="2"/>
    <line x1="657" y1="380" x2="671" y2="380" stroke="#6e6a5e" stroke-width="2.6" stroke-linecap="round"/>
    <text class="row" x="694" y="387">You want minimal and lightweight</text>

    <circle cx="664" cy="460" r="15" fill="none" stroke="#6e6a5e" stroke-width="2"/>
    <line x1="657" y1="460" x2="671" y2="460" stroke="#6e6a5e" stroke-width="2.6" stroke-linecap="round"/>
    <text class="row" x="694" y="467">You expect a mobile build tool</text>

    <circle cx="664" cy="540" r="15" fill="none" stroke="#6e6a5e" stroke-width="2"/>
    <line x1="657" y1="540" x2="671" y2="540" stroke="#6e6a5e" stroke-width="2.6" stroke-linecap="round"/>
    <text class="row" x="694" y="547">You are wary of usage-based AI pricing</text>
  </g>

  <!-- Center "or" medallion -->
  <circle cx="600" cy="388" r="22" fill="#2c5f4f" stroke="#fbfaf7" stroke-width="3"/>
  <text class="node" x="600" y="394" text-anchor="middle">or</text>

  <!-- Footer -->
  <text class="foot" x="60" y="644">Try the free plan, then judge it on one real release cycle — pay only once the time saved is obvious.</text>
</svg>
